name processed_emg_signals
nRows=32
nColumns=7
 
endheader
time	LGLTMED	LRF	LADDLONG	LST	LTA	LGM
1.0070000000000001	0.0839478023101712	0.1063791267770505	0.1058809396818336	0.547173069253774	0.1558447952870469	0.5332200530553375
1.008	0.089457306754236	0.1083095715078563	0.1059377481367892	0.5574348617955729	0.1570936006071383	0.5410166091655627
1.0090000000000001	0.0951234988176907	0.1103001577857077	0.1060771506826047	0.567788955896639	0.1584974649292432	0.5487660393632598
1.01	0.1009452180740534	0.1123509577846356	0.106298873545038	0.5782286087612325	0.1600583260375603	0.5564631967235935
1.0110000000000001	0.1069211281867898	0.1144619940458283	0.1066025806378618	0.588746757678846	0.1617780407291205	0.5641029049345169
1.012	0.1130497159140547	0.1166332387501909	0.1069878738220957	0.5993360243655194	0.1636583814524614	0.5716799642048973
1.0130000000000001	0.1193292903724504	0.1188646130456174	0.107454293236844	0.6099887200965742	0.1657010329608319	0.579189157392334
1.014	0.1257579825670143	0.1211559864307474	0.1080013177019994	0.6206968516341159	0.1679075889870891	0.5866252563382301
1.0150000000000001	0.1323337451943275	0.1235071761969208	0.1086283651926716	0.6314521279505638	0.1702795489471197	0.5939830283965464
1.016	0.139054352725359	0.1259179469297734	0.1093347933849404	0.6422459677473835	0.1728183146784202	0.6012572431413497
1.0170000000000001	0.145917401774218	0.1283880100721001	0.1101199002723528	0.6530695077659248	0.1755251872201085	0.6084426792367391
1.018	0.1529203117585361	0.1309170235494049	0.1109829248520486	0.6639136118851026	0.1784013636403432	0.6155341314509893
1.0190000000000001	0.1600603258568033	0.1335045914597749	0.1119230478793922	0.674768880998371	0.1814479339167678	0.6225264177947886
1.02	0.1673345122673804	0.1361502638294158	0.1129393926896176	0.6856256636602034	0.1846658778751996	0.6294143867616031
1.0210000000000001	0.1747397657734869	0.1388535364350787	0.1140310260850269	0.6964740674903346	0.1880560621914794	0.6361929246463043
1.022	0.1822728096179056	0.14161385069427	0.1151969592861464	0.7073039713217426	0.1916192374609194	0.6428569629166411
1.0230000000000001	0.1899301976905354	0.1444305936238253	0.1164361489452072	0.7181050380764592	0.1953560353394228	0.6494014856108713
1.024	0.1977083170315648	0.1473030978670859	0.1177474982201232	0.7288667283510853	0.1992669657598771	0.6558215367342154
1.025	0.20560339065236	0.150230641789748	0.1191298579069885	0.7395783146917221	0.2033524142269748	0.6621122276266822
1.026	0.2136114806757403	0.1532124496444501	0.1205820276288796	0.7502288965358654	0.20761263919311	0.66826874427508
1.027	0.2217284917967094	0.1562476918040176	0.122102757078504	0.7608074157962788	0.2120477695175625	0.6742863545423596
1.028	0.2299501750641394	0.1593354850634858	0.1236907473119461	0.771302673059626	0.216657802010913	0.6801604152879016
1.029	0.2382721319831333	0.1624748930110297	0.1253446520904668	0.781703344370439	0.2214425990665708	0.6858863793534062
1.03	0.2466898189371964	0.1656649264681462	0.1270630792671141	0.7919979985687914	0.2264018863811123	0.6914598023907204
1.031	0.255198551928579	0.1689045439996726	0.1288445922145689	0.8021751151480537	0.231535250765323	0.6968763495105729
1.032	0.2637935116343916	0.1721926524944098	0.1306877112906896	0.8122231025969596	0.2368421380477279	0.7021318017340982
1.033	0.2724697487753604	0.175528107817614	0.1325909153379803	0.8221303171886084	0.2423218510725723	0.7072220622321463
1.034	0.2812221897931701	0.1789097155365101	0.1345526432134551	0.8318850821774114	0.24797354779404	0.7121431623396173
1.035	0.2900456428315318	0.1823362317203398	0.1365712953453519	0.8414757073634044	0.2537962394684104	0.716891267333905
1.036	0.2989348040152192	0.1858063638165613	0.1386452353133601	0.8508905089817795	0.2597887889456316	0.7214626819679818
1.037	0.3078842640205381	0.1893187716049646	0.1407727914491444	0.8601178298736306	0.2659499090612655	0.725853855750617
1.038	0.3168885149298106	0.1928720682313936	0.1429522584539735	0.8691460598921785	0.2722781611294195	0.7300613879686253
